<svg xmlns="http://www.w3.org/2000/svg" viewBox="0 0 760 352" role="img" aria-labelledby="title desc"><title id="title">Reported victimization rates by age</title><desc id="desc">Mean reported victims per 1,000 children across 52 jurisdictions. The infant mean is 27.7; the age 17 mean is 4.1.</desc><rect width="760" height="352" fill="#edf2e9"/><g font-family="Arial,sans-serif" font-size="14" fill="#4d6254"><text x="82" y="35" font-size="14">MEAN REPORTED VICTIMS / 1,000 CHILDREN</text><line x1="82" y1="276.00" x2="688" y2="276.00" stroke="#d9dfd7"/><text x="65" y="281.00" text-anchor="end">0</text><line x1="82" y1="206.67" x2="688" y2="206.67" stroke="#d9dfd7"/><text x="65" y="211.67" text-anchor="end">10</text><line x1="82" y1="137.33" x2="688" y2="137.33" stroke="#d9dfd7"/><text x="65" y="142.33" text-anchor="end">20</text><line x1="82" y1="68.00" x2="688" y2="68.00" stroke="#d9dfd7"/><text x="65" y="73.00" text-anchor="end">30</text><text x="82.00" y="305" text-anchor="middle">&lt;1</text><text x="117.65" y="305" text-anchor="middle">1</text><text x="260.24" y="305" text-anchor="middle">5</text><text x="438.47" y="305" text-anchor="middle">10</text><text x="616.71" y="305" text-anchor="middle">15</text><text x="688.00" y="305" text-anchor="middle">17</text><text x="690" y="335" text-anchor="end">Age</text></g><polyline points="82.00,83.68 117.65,188.80 153.29,194.92 188.94,199.71 224.59,202.59 260.24,203.96 295.88,205.21 331.53,209.80 367.18,212.01 402.82,212.27 438.47,214.39 474.12,218.04 509.76,219.93 545.41,222.33 581.06,224.59 616.71,227.56 652.35,235.08 688.00,247.44" fill="none" stroke="#245f49" stroke-width="3.5"/><circle cx="82.00" cy="83.68" r="4" fill="#245f49"/><circle cx="117.65" cy="188.80" r="4" fill="#245f49"/><circle cx="153.29" cy="194.92" r="4" fill="#245f49"/><circle cx="188.94" cy="199.71" r="4" fill="#245f49"/><circle cx="224.59" cy="202.59" r="4" fill="#245f49"/><circle cx="260.24" cy="203.96" r="4" fill="#245f49"/><circle cx="295.88" cy="205.21" r="4" fill="#245f49"/><circle cx="331.53" cy="209.80" r="4" fill="#245f49"/><circle cx="367.18" cy="212.01" r="4" fill="#245f49"/><circle cx="402.82" cy="212.27" r="4" fill="#245f49"/><circle cx="438.47" cy="214.39" r="4" fill="#245f49"/><circle cx="474.12" cy="218.04" r="4" fill="#245f49"/><circle cx="509.76" cy="219.93" r="4" fill="#245f49"/><circle cx="545.41" cy="222.33" r="4" fill="#245f49"/><circle cx="581.06" cy="224.59" r="4" fill="#245f49"/><circle cx="616.71" cy="227.56" r="4" fill="#245f49"/><circle cx="652.35" cy="235.08" r="4" fill="#245f49"/><circle cx="688.00" cy="247.44" r="4" fill="#245f49"/><text x="104" y="88.68" font-family="Arial,sans-serif" font-size="22" font-weight="bold" fill="#245f49">27.7</text></svg>